<?xml version="1.0" encoding="utf-8"?>
<!-- Generator: Adobe Illustrator 28.0.0, SVG Export Plug-In . SVG Version: 6.00 Build 0)  -->
<svg version="1.1" id="Calque_1" xmlns="http://www.w3.org/2000/svg" xmlns:xlink="http://www.w3.org/1999/xlink" x="0px" y="0px"
	 viewBox="0 0 730.8 78.1" style="enable-background:new 0 0 730.8 78.1;" xml:space="preserve">
<style type="text/css">
	.st0{fill:#FCFCFC;}
</style>
<g>
	<path class="st0" d="M284.6-0.1c1.3,0.2,2.5,0.3,3.8,0.5c6.2,0.6,12.1,1.9,17.7,4.9c8.6,4.6,14.3,11.5,17.1,20.8
		c2.8,9.4,2.9,18.8-0.1,28.2c-3.7,11.7-11.7,18.9-23.5,22c-4.8,1.3-9.8,1.5-14.7,1.6c-8.7,0.1-17.4,0.1-26.1,0.1c-0.3,0-0.5,0-0.9,0
		c0-0.5,0-1,0-1.5c0-18,0-36,0-53.9c0-2.8-0.1-5.6,0-8.4c0.1-5.3-1.6-9.8-5.3-13.7c0.4-0.1,0.9-0.3,1.3-0.3c9,0,18,0,27.1,0
		c0.5,0,0.9-0.1,1.4-0.2C283-0.1,283.8-0.1,284.6-0.1z M269,75.3c2.6,0,5.1,0.1,7.6,0c4.4-0.2,8.9-0.2,13.3-0.8
		c6.7-0.8,12.4-3.7,16.3-9.5c2.1-3.1,3.7-6.5,4.7-10.1c2-7.1,2.1-14.3,1.3-21.6c-0.6-5.7-2.1-11.3-5-16.3
		c-3.9-6.8-9.4-11.6-17.4-13.2c-4.8-1-9.7-1.2-14.5-1.1c-2.1,0.1-4.3,0.2-6.4,0.3C269,27.2,269,51.2,269,75.3z"/>
	<path class="st0" d="M117.4-0.1c1.3,0.2,2.6,0.3,3.9,0.5c4.5,0.4,8.8,1.5,12.9,3.4c13.1,6.3,12.7,22.3,3.1,29.6
		c-4.3,3.3-9.2,5.2-14.7,6.1c0.4,0.2,0.6,0.4,0.8,0.5c5.9,2.7,10.4,7.2,14.1,12.4c5.6,7.8,9.4,16.6,13.2,25.5c-3.1,0-6,0-8.7,0
		c-1.8-4.1-3.4-8.3-5.3-12.2c-3.6-7.4-8-14.2-14.5-19.4c-5-4-10.7-5.8-17.3-5.3c0,12.3,0,24.6,0,36.9c-3.8,0-7.4,0-11.2,0
		c0-0.4,0-0.9,0-1.4c0-19.9,0-39.8,0-59.7c0-2.3,0-4.6-0.4-6.9c-0.5-3.7-2.4-6.8-4.9-9.5c0.4-0.1,0.9-0.3,1.3-0.3
		c7.9,0,15.7,0,23.6,0c0.4,0,0.8-0.1,1.2-0.2C115.7-0.1,116.5-0.1,117.4-0.1z M105.1,38.3c2.1,0,4.1-0.1,6.1,0
		c3.5,0.2,6.9-0.4,10.2-1.6c4.1-1.4,7.2-4,8.8-8c2.3-5.9,2.1-11.9-0.4-17.8c-1.5-3.5-4.1-5.7-7.9-6.4c-2.3-0.4-4.7-0.9-7.1-1
		c-3.2-0.2-6.4,0-9.7,0C105.1,15,105.1,26.6,105.1,38.3z"/>
	<path class="st0" d="M546.8-0.1c1.2,0.2,2.5,0.4,3.7,0.6c7.1,1.1,13.1,4.5,18.6,9c8.3,6.9,12.1,15.9,12.6,26.5
		c0.5,9.8-1.3,19.1-7.6,27c-5.9,7.4-13.2,12.9-22.9,14.3c-8.9,1.3-17.8,1.1-25.9-3.4c-12.1-6.8-19.3-17-20.4-31.1
		c-0.6-7.3-0.1-14.5,3.3-21.1c6.4-12.3,16.3-20,30.5-21.5c0.2,0,0.4-0.1,0.6-0.2C541.9-0.1,544.3-0.1,546.8-0.1z M568.9,40.4
		c0-6.8-0.2-12.1-1.2-17.3c-1.4-7.1-4.9-12.7-10.9-16.7c-3.6-2.4-7.8-3.3-12-3.5C538,2.6,532,4.1,527.2,9.2c-3,3.2-5.4,6.7-6.7,10.9
		c-3.6,11.2-3.6,22.6-1.1,34.1c1.2,5.3,3.6,10.1,7.5,14.1c6.5,6.7,17.3,8.9,26.3,5.2c7.5-3.1,12-8.8,14.1-16.6
		C568.8,51.1,568.9,45,568.9,40.4z"/>
	<path class="st0" d="M663.2-0.1c0,0.4,0,0.7,0,1.1c0,25.3,0,50.6,0,75.8c0,0.3,0,0.6,0,1c-1.4,0.4-2.3,0-3.1-1.2
		c-17.6-23.1-35.2-46.1-52.8-69.1c-0.2-0.3-0.4-0.5-0.9-1.1c0,23.4,0,46.5,0,69.6c-0.9,0-1.6,0-2.6,0c0-0.5,0-0.9,0-1.4
		c0-19.4,0-38.8,0-58.2c0-2.4-0.2-4.9-0.6-7.2c-0.6-3.5-2.6-6.3-4.9-8.9c5.8,0,11.6,0,17.3,0c0.2,0.2,0.3,0.3,0.5,0.5
		c14.5,19.3,28.9,38.6,43.4,57.9c0.1,0.1,0.2,0.1,0.3,0.2c0-0.4,0.1-0.7,0.1-1.1c0-18.9,0-37.9,0-56.8c0-0.3-0.1-0.6-0.1-0.9
		C660.9-0.1,662-0.1,663.2-0.1z"/>
	<path class="st0" d="M204.5-0.1c1.7,4,3.5,8,5.2,12c9.2,21.5,18.4,43.1,27.5,64.7c0.2,0.4,0.3,0.8,0.5,1.3c-4,0-7.9,0-11.8,0
		c-0.3,0-0.7-0.5-0.9-0.9c-4.3-10.6-8.6-21.1-13-31.7c-4.1-10-8.3-20-12.5-29.9c-0.1-0.3-0.3-0.6-0.5-1.1c-1.5,3.7-2.9,7.2-4.4,10.7
		c-2.8,6.8-5.6,13.5-8.3,20.3c-3.9,10.2-7.7,20.5-11.6,30.7c-0.8,2-0.8,2-2.9,2c-0.6,0-1.3,0-2.1,0c1.1-2.7,2.2-5.4,3.3-8
		c9.5-23,19.1-45.9,28.6-68.9c0.1-0.4,0.2-0.8,0.3-1.1C202.9-0.1,203.7-0.1,204.5-0.1z"/>
	<path class="st0" d="M730.6,59c-0.3,1.2-0.5,2.4-0.8,3.6c-2.2,8.4-9.1,14.3-17.7,15.2c-11.6,1.3-20.4-3.5-27.5-12.3
		c-0.3-0.3-0.5-0.7-0.7-1.1c0.6-0.6,1.1-1.2,1.6-1.8c0.1-0.1,0.3-0.3,0.5-0.4c1.3,1.7,2.6,3.3,4,4.9c4.8,5.5,10.9,8.3,18.2,8
		c9.2-0.4,15.8-9,13.7-17.6c-0.7-3-2.4-5.4-4.8-7.1c-3.2-2.4-6.6-4.5-9.9-6.7c-4.4-2.8-9-5.4-13.2-8.4c-7.2-5.2-10.1-14.2-7.3-22.5
		c2.4-7.4,7.9-11.6,15.6-12.4c9-0.9,16.4,2.1,21.7,9.7c-0.8,0.6-1.5,1.3-2.3,1.9c-1.4-1.6-2.7-3.2-4.1-4.5
		c-4.3-3.9-9.5-5.2-15.1-4.2c-7.4,1.4-11.2,10.2-7.4,16.7c1.5,2.6,3.7,4.7,6.2,6.4c4.6,3,9.3,5.9,14,8.8c2.6,1.7,5.2,3.3,7.7,5.1
		c4.3,3.2,6.8,7.5,7.5,12.8c0,0.2,0.2,0.3,0.2,0.5C730.6,55.4,730.6,57.2,730.6,59z"/>
	<path class="st0" d="M454.2,0.2c0,0.8,0,1.5,0,2.4c-10.8,0-21.5,0-32.4,0c0,25.2,0,50.2,0,75.3c-3.9,0-7.6,0-11.4,0
		c0-25.1,0-50.1,0-75.3c-10.8,0-21.4,0-32.2,0c0-1,0-1.8,0-2.7c0.2,0,0.3,0,0.5,0c0.5,0.1,1,0.2,1.5,0.2
		C404.8,0.2,429.5,0.2,454.2,0.2z"/>
	<path class="st0" d="M76.4-0.1c-0.1,0.9-0.1,1.7-0.2,2.7c-10.8,0-21.5,0-32.4,0c0,25.1,0,50.2,0,75.3c-3.8,0-7.5,0-11.3,0
		c0-25,0-50.1,0-75.2c-10.8,0-21.4,0-32.3,0C0.3,1.7,0.3,1,0.4,0.2c24.7,0,49.4,0,74.1,0c0.5,0,1-0.1,1.5-0.2
		C76.1-0.1,76.2-0.1,76.4-0.1z"/>
	<path class="st0" d="M358.8-0.1c1.3,0.2,2.5,0.3,3.8,0.5c6.2,0.6,12.1,1.9,17.7,4.9c8.6,4.6,14.3,11.5,17.1,20.8
		c2.8,9.4,2.9,18.8-0.1,28.2c-3.7,11.7-11.7,18.9-23.5,22c-4.8,1.3-9.8,1.5-14.7,1.6c-8.7,0.1-17.4,0.1-26.1,0.1c-0.3,0-0.5,0-0.9,0
		c0-0.5,0-1,0-1.5c0-18,0-36,0-53.9c0-2.8-0.1-5.6,0-8.4c0.1-5.3-1.6-9.8-5.3-13.7c0.4-0.1,0.9-0.3,1.3-0.3c9,0,18,0,27.1,0
		c0.5,0,0.9-0.1,1.4-0.2C357.4-0.1,358.1-0.1,358.8-0.1z M343.2,75.3c2.6,0,5.1,0.1,7.6,0c4.4-0.2,8.9-0.2,13.3-0.8
		c6.7-0.8,12.4-3.7,16.3-9.5c2.1-3.1,3.7-6.5,4.7-10.1c2-7.1,2.1-14.3,1.3-21.6c-0.6-5.7-2.1-11.3-5-16.3
		c-3.9-6.8-9.4-11.6-17.4-13.2c-4.8-1-9.7-1.2-14.5-1.1c-2.1,0.1-4.3,0.2-6.4,0.3C343.2,27.2,343.2,51.2,343.2,75.3z"/>
	<path class="st0" d="M75.9-0.1c-0.5,0.1-1,0.2-1.5,0.2c-24.7,0-49.4,0-74.1,0c0-0.1,0-0.2,0-0.2C25.6-0.1,50.7-0.1,75.9-0.1z"/>
	<path class="st0" d="M454.2,0.2c-24.7,0-49.4,0-74.1,0c-0.5,0-1-0.1-1.5-0.2c25.2,0,50.4,0,75.6,0C454.2,0,454.2,0.1,454.2,0.2z"/>
	<path class="st0" d="M282.2-0.1c-0.5,0.1-0.9,0.2-1.4,0.2c-9,0-18,0-27.1,0c-0.4,0-0.9,0.2-1.3,0.3c-0.1-0.2-0.1-0.3-0.2-0.5
		C262.2-0.1,272.2-0.1,282.2-0.1z"/>
	<path class="st0" d="M114.8-0.1c-0.4,0.1-0.8,0.2-1.2,0.2c-7.9,0-15.7,0-23.6,0c-0.4,0-0.9,0.2-1.3,0.3c-0.2-0.2-0.3-0.3-0.5-0.5
		C97-0.1,105.9-0.1,114.8-0.1z"/>
	<path class="st0" d="M615.7-0.1c0,0.1,0,0.1,0,0.2c-5.8,0-11.6,0-17.3,0c-0.1-0.1-0.1-0.2-0.2-0.2C604-0.1,609.8-0.1,615.7-0.1z"/>
	<path class="st0" d="M483.3-0.1c0,0.1,0,0.2,0,0.2c-5.1,0-10.2,0-15.3,0c-0.4,0-0.8,0.2-1.2,0.3c-0.2-0.2-0.3-0.3-0.5-0.5
		C471.9-0.1,477.6-0.1,483.3-0.1z"/>
	<path class="st0" d="M358.3-0.1c-0.4,0.1-0.8,0.2-1.3,0.2c-4.6,0-9.2,0-13.8,0c-0.4,0-0.9,0.2-1.3,0.3c-0.1-0.2-0.1-0.3-0.2-0.5
		C347.2-0.1,352.8-0.1,358.3-0.1z"/>
	<path class="st0" d="M466.7,0.4c0.4-0.1,0.8-0.3,1.2-0.3c5.1,0,10.2,0,15.3,0c0,0.3,0,0.6,0,1c0,25.2,0,50.5,0,75.7
		c0,0.3,0,0.6,0,1c-3.7,0-7.4,0-11.3,0c0-0.4,0-0.9,0-1.3c0-20.1,0-40.2,0-60.3c0-2.1,0-4.2-0.4-6.3C471,6.3,469.2,3.2,466.7,0.4z"/>
	<path class="st0" d="M659.6,58.6c0.1,0.1,0.2,0.1,0.3,0.2C659.8,58.7,659.7,58.6,659.6,58.6z"/>
</g>
</svg>

