<svg xmlns="http://www.w3.org/2000/svg" viewBox="0 -2 82 82" role="img" aria-label="T">
  <rect width="82" height="82" x="0" y="-2" fill="#ffffff" />
  <g fill="#0b0b0b">
    <path
      d="M75.9-0.1c-0.5,0.1-1,0.2-1.5,0.2c-24.7,0-49.4,0-74.1,0c0-0.1,0-0.2,0-0.2C25.6-0.1,50.7-0.1,75.9-0.1z"
    />
    <path
      d="M76.4-0.1c-0.1,0.9-0.1,1.7-0.2,2.7c-10.8,0-21.5,0-32.4,0c0,25.1,0,50.2,0,75.3c-3.8,0-7.5,0-11.3,0c0-25,0-50.1,0-75.2c-10.8,0-21.4,0-32.3,0C0.3,1.7,0.3,1,0.4,0.2c24.7,0,49.4,0,74.1,0c0.5,0,1-0.1,1.5-0.2C76.1-0.1,76.2-0.1,76.4-0.1z"
    />
  </g>
</svg>
